<mxfile host="app.diagrams.net" modified="2021-07-02T01:05:59.301Z" agent="5.0 (Macintosh; Intel Mac OS X 10_15_7) AppleWebKit/537.36 (KHTML, like Gecko) Chrome/91.0.4472.114 Safari/537.36" etag="iQ9YYl5f8J8qU4BGMPnF" version="14.8.3" type="github">
  <diagram id="mLkuZAHF6S4WpNiskGd3" name="Page-1">
    <mxGraphModel dx="2066" dy="1071" grid="1" gridSize="10" guides="1" tooltips="1" connect="1" arrows="1" fold="1" page="1" pageScale="1" pageWidth="827" pageHeight="1169" math="0" shadow="0">
      <root>
        <mxCell id="0" />
        <mxCell id="1" parent="0" />
        <mxCell id="nns9SZrJcxWjnw9OrAUo-3" value="driver_pad" style="html=1;" parent="1" vertex="1">
          <mxGeometry x="910" y="325" width="110" height="50" as="geometry" />
        </mxCell>
        <mxCell id="UYR3SHHamV7FcYUzkwfX-4" value="" style="edgeStyle=orthogonalEdgeStyle;rounded=0;orthogonalLoop=1;jettySize=auto;html=1;" edge="1" parent="1" source="nns9SZrJcxWjnw9OrAUo-15" target="UYR3SHHamV7FcYUzkwfX-2">
          <mxGeometry relative="1" as="geometry" />
        </mxCell>
        <mxCell id="nns9SZrJcxWjnw9OrAUo-15" value="driver_pad&amp;nbsp; 登出" style="html=1;fillColor=#d5e8d4;strokeColor=#82b366;" parent="1" vertex="1">
          <mxGeometry x="910" y="440" width="110" height="50" as="geometry" />
        </mxCell>
        <mxCell id="nns9SZrJcxWjnw9OrAUo-19" value="" style="endArrow=classic;html=1;exitX=0.5;exitY=1;exitDx=0;exitDy=0;" parent="1" source="nns9SZrJcxWjnw9OrAUo-3" target="nns9SZrJcxWjnw9OrAUo-15" edge="1">
          <mxGeometry width="50" height="50" relative="1" as="geometry">
            <mxPoint x="1070" y="475" as="sourcePoint" />
            <mxPoint x="1120" y="425" as="targetPoint" />
          </mxGeometry>
        </mxCell>
        <mxCell id="nns9SZrJcxWjnw9OrAUo-27" value="" style="endArrow=none;dashed=1;html=1;dashPattern=1 3;strokeWidth=2;" parent="1" edge="1">
          <mxGeometry width="50" height="50" relative="1" as="geometry">
            <mxPoint x="850" y="600" as="sourcePoint" />
            <mxPoint x="850" y="320" as="targetPoint" />
          </mxGeometry>
        </mxCell>
        <mxCell id="UYR3SHHamV7FcYUzkwfX-1" value="ridercar" style="html=1;" vertex="1" parent="1">
          <mxGeometry x="660" y="325" width="110" height="50" as="geometry" />
        </mxCell>
        <mxCell id="UYR3SHHamV7FcYUzkwfX-2" value="填写车辆公里数,油耗&lt;br&gt;以及反馈车辆图片" style="html=1;fillColor=#d5e8d4;strokeColor=#82b366;" vertex="1" parent="1">
          <mxGeometry x="910" y="535" width="110" height="50" as="geometry" />
        </mxCell>
        <mxCell id="UYR3SHHamV7FcYUzkwfX-5" value="更新车辆任务&lt;br&gt;状态为完成任务" style="html=1;" vertex="1" parent="1">
          <mxGeometry x="660" y="535" width="110" height="50" as="geometry" />
        </mxCell>
        <mxCell id="UYR3SHHamV7FcYUzkwfX-6" value="" style="endArrow=classic;html=1;exitX=0;exitY=0.5;exitDx=0;exitDy=0;entryX=1;entryY=0.5;entryDx=0;entryDy=0;" edge="1" parent="1" source="UYR3SHHamV7FcYUzkwfX-2" target="UYR3SHHamV7FcYUzkwfX-5">
          <mxGeometry width="50" height="50" relative="1" as="geometry">
            <mxPoint x="840" y="680" as="sourcePoint" />
            <mxPoint x="890" y="630" as="targetPoint" />
          </mxGeometry>
        </mxCell>
        <mxCell id="UYR3SHHamV7FcYUzkwfX-8" value="提交" style="edgeLabel;html=1;align=center;verticalAlign=middle;resizable=0;points=[];" vertex="1" connectable="0" parent="UYR3SHHamV7FcYUzkwfX-6">
          <mxGeometry x="-0.1714" y="-2" relative="1" as="geometry">
            <mxPoint as="offset" />
          </mxGeometry>
        </mxCell>
        <mxCell id="UYR3SHHamV7FcYUzkwfX-7" value="" style="endArrow=classic;html=1;exitX=0.5;exitY=1;exitDx=0;exitDy=0;" edge="1" parent="1" source="UYR3SHHamV7FcYUzkwfX-1" target="UYR3SHHamV7FcYUzkwfX-5">
          <mxGeometry width="50" height="50" relative="1" as="geometry">
            <mxPoint x="620" y="500" as="sourcePoint" />
            <mxPoint x="670" y="450" as="targetPoint" />
          </mxGeometry>
        </mxCell>
      </root>
    </mxGraphModel>
  </diagram>
</mxfile>
